<svg xmlns="http://www.w3.org/2000/svg" viewBox="0 0 600 400" width="600" height="400">
  <defs>
    <linearGradient id="g3-bg" x1="0%" y1="0%" x2="100%" y2="100%">
      <stop offset="0%" stop-color="#3D2B1F"/>
      <stop offset="100%" stop-color="#5D4037"/>
    </linearGradient>
  </defs>
  <rect width="600" height="400" fill="url(#g3-bg)"/>
  <g opacity="0.1">
    <path d="M50 340 Q100 330 150 340 Q200 350 250 335 Q300 320 350 335 Q400 350 450 330 Q500 310 550 330 L550 380 L50 380 Z" fill="#FFFFFF"/>
  </g>
  <g transform="translate(200, 100)">
    <path d="M0 0 L120 0 L120 120 L0 120 Z" fill="#F5E9DA" stroke="#3D2B1F" stroke-width="2" rx="6"/>
    <path d="M120 0 L150 60 L120 120 Z" fill="#D4AF37"/>
    <path d="M30 25 L30 35 M50 25 L50 35 M70 25 L70 35 M90 25 L90 35 M110 25 L110 35" stroke="#3D2B1F" stroke-width="1"/>
    <circle cx="60" cy="50" r="10" fill="#3D2B1F"/>
    <path d="M60 35 L60 45 M52 45 L60 55 L68 45" stroke="#FFFFFF" stroke-width="1.5" stroke-linecap="round"/>
    <path d="M30 65 Q40 70 50 65 Q60 60 70 65 Q80 70 90 65 Q100 60 110 65" stroke="#3D2B1F" stroke-width="1" fill="none"/>
    <path d="M15 85 Q25 90 35 85 Q45 80 55 85 Q65 90 75 85 Q85 80 95 85 Q105 90 115 85" stroke="#3D2B1F" stroke-width="1" fill="none"/>
    <path d="M30 100 L90 100" stroke="#3D2B1F" stroke-width="1" stroke-dasharray="3,2"/>
    <path d="M50 105 L50 120" stroke="#C14A2A" stroke-width="3" stroke-linecap="round"/>
    <path d="M70 105 Q75 115 80 120 L40 120 Q45 115 50 105" fill="none" stroke="#C14A2A" stroke-width="2" stroke-linecap="round"/>
    <path d="M60 70 L60 80 L70 80" stroke="#C14A2B" stroke-width="1.5" stroke-linecap="round"/>
    <path d="M55 75 L65 75" stroke="#C14A2B" stroke-width="1.5" stroke-linecap="round"/>
  </g>
  <g transform="translate(400, 250)">
    <path d="M0 0 C5 15 15 30 30 35 C45 40 60 35 75 30 C90 25 100 10 95 0 C90-10 80-10 70 0 C60 10 50 15 40 20 C30 25 20 25 10 20 C0 15 0 0 0 0 Z" fill="#FFFFFF" opacity="0.05"/>
    <ellipse cx="40" cy="5" rx="25" ry="8" fill="#FFFFFF" opacity="0.1"/>
  </g>
  <g transform="translate(100, 280)">
    <ellipse cx="0" cy="0" rx="15" ry="5" fill="#D4AF37" opacity="0.3"/>
    <path d="M-5 0 C-5-8 0-15 5-15 C10-15 15-8 15 0 C15 8 10 15 5 15 C0 15-5 8-5 0 Z" fill="#D4AF37" opacity="0.2"/>
  </g>
</svg>
